<mxfile host="app.diagrams.net" modified="2023-10-06T13:04:16.966Z" agent="Mozilla/5.0 (Windows NT 10.0; Win64; x64; rv:109.0) Gecko/20100101 Firefox/118.0" version="22.0.3" etag="Gg19DPZnSMJ9uFA0dAaH" type="github">
  <diagram name="Page-1" id="7z-azWWSBuljWyFQPM1H">
    <mxGraphModel>
      <root>
        <mxCell id="0" />
        <mxCell id="1" parent="0" />
      </root>
    </mxGraphModel>
  </diagram>
</mxfile>
